<svg width="198" height="164" viewBox="0 0 198 164" fill="none" xmlns="http://www.w3.org/2000/svg">
<path fill-rule="evenodd" clip-rule="evenodd" d="M145.7 1.49422V0.279785L144.508 0.512805L53.3042 18.3437L52.4961 18.5017V19.3252V111.362L2.19641 99.3886L0.964844 99.0954V100.361V162.506V163.506H1.96484H53.5168H54.5168V163.505H143.812V163.507H144.812H196.364H197.364V162.507V78.1339V76.9603L196.206 77.1465L145.7 85.2638V1.49422ZM54.5168 112.632V161.505H79.9648V138.242V137.242H80.9648H117.371H118.371V138.242V161.505H143.7V2.70866L54.4961 20.1486V111.838L54.5168 111.843V112.632ZM2.96484 101.627L52.4961 113.417V161.506H2.96484V101.627ZM145.812 161.507V87.2713L195.364 79.3074V161.507H145.812ZM152.637 100.241H151.637V101.241V106.389V107.389H152.637H188.554H189.554V106.389V101.241V100.241H188.554H152.637ZM153.637 105.389V102.241H187.554V105.389H153.637ZM151.637 112.856H152.637H188.554H189.554V113.856V119.004V120.004H188.554H152.637H151.637V119.004V113.856V112.856ZM153.637 114.856V118.004H187.554V114.856H153.637ZM152.637 125.471H151.637V126.471V131.619V132.619H152.637H188.554H189.554V131.619V126.471V125.471H188.554H152.637ZM153.637 130.619V127.471H187.554V130.619H153.637ZM8.78516 118.896H9.78516H45.5294H46.5294V119.896V124.364V125.364H45.5294H9.78516H8.78516V124.364V119.896V118.896ZM10.7852 120.896V123.364H44.5294V120.896H10.7852ZM9.78516 130.066H8.78516V131.066V135.535V136.535H9.78516H45.5294H46.5294V135.535V131.066V130.066H45.5294H9.78516ZM10.7852 134.535V132.066H44.5294V134.535H10.7852ZM8.78516 141.237H9.78516H45.5294H46.5294V142.237V146.705V147.705H45.5294H9.78516H8.78516V146.705V142.237V141.237ZM10.7852 143.237V145.705H44.5294V143.237H10.7852ZM71.4297 31.0841H70.4297V32.0841V37.2323V38.2323H71.4297H76.7611H77.7611V37.2323V32.0841V31.0841H76.7611H71.4297ZM72.4297 36.2323V33.0841H75.7611V36.2323H72.4297ZM70.4296 43.7921H71.4296H76.7611H77.7611V44.7921V49.9403V50.9403H76.7611H71.4296H70.4296V49.9403V44.7921V43.7921ZM72.4296 45.7921V48.9403H75.7611V45.7921H72.4296ZM71.4296 56.507H70.4296V57.507V62.6552V63.6552H71.4296H76.7611H77.7611V62.6552V57.507V56.507H76.7611H71.4296ZM72.4296 61.6552V58.507H75.7611V61.6552H72.4296ZM87.0898 31.0841H88.0898H93.4213H94.4213V32.0841V37.2323V38.2323H93.4213H88.0898H87.0898V37.2323V32.0841V31.0841ZM89.0898 33.0841V36.2323H92.4213V33.0841H89.0898ZM88.0898 43.7989H87.0898V44.7989V49.9471V50.9471H88.0898H93.4213H94.4213V49.9471V44.7989V43.7989H93.4213H88.0898ZM89.0898 48.9471V45.7989H92.4213V48.9471H89.0898ZM87.0898 56.5069H88.0898H93.4213H94.4213V57.5069V62.6551V63.6551H93.4213H88.0898H87.0898V62.6551V57.5069V56.5069ZM89.0898 58.5069V61.6551H92.4213V58.5069H89.0898ZM104.766 31.0841H103.766V32.0841V37.2323V38.2323H104.766H110.097H111.097V37.2323V32.0841V31.0841H110.097H104.766ZM105.766 36.2323V33.0841H109.097V36.2323H105.766ZM103.766 43.7989H104.766H110.097H111.097V44.7989V49.9471V50.9471H110.097H104.766H103.766V49.9471V44.7989V43.7989ZM105.766 45.7989V48.9471H109.097V45.7989H105.766ZM104.766 56.5069H103.766V57.5069V62.6551V63.6551H104.766H110.097H111.097V62.6551V57.5069V56.5069H110.097H104.766ZM105.766 61.6551V58.5069H109.097V61.6551H105.766ZM120.434 31.0841H121.434H126.765H127.765V32.0841V37.2323V38.2323H126.765H121.434H120.434V37.2323V32.0841V31.0841ZM122.434 33.0841V36.2323H125.765V33.0841H122.434ZM121.434 43.7989H120.434V44.7989V49.9471V50.9471H121.434H126.765H127.765V49.9471V44.7989V43.7989H126.765H121.434ZM122.434 48.9471V45.7989H125.765V48.9471H122.434ZM120.434 56.5069H121.434H126.765H127.765V57.5069V62.6551V63.6551H126.765H121.434H120.434V62.6551V57.5069V56.5069ZM122.434 58.5069V61.6551H125.765V58.5069H122.434ZM71.4296 69.2148H70.4296V70.2148V75.363V76.363H71.4296H76.7611H77.7611V75.363V70.2148V69.2148H76.7611H71.4296ZM72.4296 74.363V71.2148H75.7611V74.363H72.4296ZM70.4296 81.9297H71.4296H76.7611H77.7611V82.9297V88.0779V89.0779H76.7611H71.4296H70.4296V88.0779V82.9297V81.9297ZM72.4296 83.9297V87.0779H75.7611V83.9297H72.4296ZM71.4296 94.6446H70.4296V95.6446V100.793V101.793H71.4296H76.7611H77.7611V100.793V95.6446V94.6446H76.7611H71.4296ZM72.4296 99.7928V96.6446H75.7611V99.7928H72.4296ZM87.0898 69.2149H88.0898H93.4213H94.4213V70.2149V75.3631V76.3631H93.4213H88.0898H87.0898V75.3631V70.2149V69.2149ZM89.0898 71.2149V74.3631H92.4213V71.2149H89.0898ZM88.0898 81.9298H87.0898V82.9298V88.0779V89.0779H88.0898H93.4213H94.4213V88.0779V82.9298V81.9298H93.4213H88.0898ZM89.0898 87.0779V83.9298H92.4213V87.0779H89.0898ZM87.0898 94.6446H88.0898H93.4213H94.4213V95.6446V100.793V101.793H93.4213H88.0898H87.0898V100.793V95.6446V94.6446ZM89.0898 96.6446V99.7928H92.4213V96.6446H89.0898ZM104.766 69.2149H103.766V70.2149V75.3631V76.3631H104.766H110.097H111.097V75.3631V70.2149V69.2149H110.097H104.766ZM105.766 74.3631V71.2149H109.097V74.3631H105.766ZM103.766 81.9298H104.766H110.097H111.097V82.9298V88.0779V89.0779H110.097H104.766H103.766V88.0779V82.9298V81.9298ZM105.766 83.9298V87.0779H109.097V83.9298H105.766ZM104.766 94.6446H103.766V95.6446V100.793V101.793H104.766H110.097H111.097V100.793V95.6446V94.6446H110.097H104.766ZM105.766 99.7928V96.6446H109.097V99.7928H105.766ZM120.434 69.2149H121.434H126.765H127.765V70.2149V75.3631V76.3631H126.765H121.434H120.434V75.3631V70.2149V69.2149ZM122.434 71.2149V74.3631H125.765V71.2149H122.434ZM121.434 81.9298H120.434V82.9298V88.0779V89.0779H121.434H126.765H127.765V88.0779V82.9298V81.9298H126.765H121.434ZM122.434 87.0779V83.9298H125.765V87.0779H122.434ZM120.434 94.6446H121.434H126.765H127.765V95.6446V100.793V101.793H126.765H121.434H120.434V100.793V95.6446V94.6446ZM122.434 96.6446V99.7928H125.765V96.6446H122.434ZM71.4296 107.36H70.4296V108.36V113.508V114.508H71.4296H76.7611H77.7611V113.508V108.36V107.36H76.7611H71.4296ZM72.4296 112.508V109.36H75.7611V112.508H72.4296ZM70.4296 120.067H71.4296H76.7611H77.7611V121.067V126.215V127.215H76.7611H71.4296H70.4296V126.215V121.067V120.067ZM72.4296 122.067V125.215H75.7611V122.067H72.4296ZM88.0898 107.359H87.0898V108.359V113.508V114.508H88.0898H93.4213H94.4213V113.508V108.359V107.359H93.4213H88.0898ZM89.0898 112.508V109.359H92.4213V112.508H89.0898ZM87.0898 120.067H88.0898H93.4213H94.4213V121.067V126.216V127.216H93.4213H88.0898H87.0898V126.216V121.067V120.067ZM89.0898 122.067V125.216H92.4213V122.067H89.0898ZM104.766 107.359H103.766V108.359V113.508V114.508H104.766H110.097H111.097V113.508V108.359V107.359H110.097H104.766ZM105.766 112.508V109.359H109.097V112.508H105.766ZM103.766 120.067H104.766H110.097H111.097V121.067V126.216V127.216H110.097H104.766H103.766V126.216V121.067V120.067ZM105.766 122.067V125.216H109.097V122.067H105.766ZM121.434 107.359H120.434V108.359V113.508V114.508H121.434H126.765H127.765V113.508V108.359V107.359H126.765H121.434ZM122.434 112.508V109.359H125.765V112.508H122.434ZM120.434 120.067H121.434H126.765H127.765V121.067V126.216V127.216H126.765H121.434H120.434V126.216V121.067V120.067ZM122.434 122.067V125.216H125.765V122.067H122.434ZM81.9648 161.502V139.242H116.371V161.502H81.9648Z" fill="#211E1E"/>
</svg>
